<?xml version="1.0" encoding="utf-8"?>
<!-- Svg Vector Icons : http://www.onlinewebfonts.com/icon -->
<!DOCTYPE svg PUBLIC "-//W3C//DTD SVG 1.1//EN" "http://www.w3.org/Graphics/SVG/1.1/DTD/svg11.dtd">
<svg version="1.1" xmlns="http://www.w3.org/2000/svg" xmlns:xlink="http://www.w3.org/1999/xlink" x="0px" y="0px" viewBox="0 0 1000 1000" enable-background="new 0 0 1000 1000" xml:space="preserve">
<metadata> Svg Vector Icons : http://www.onlinewebfonts.com/icon </metadata>
<g><path d="M200,395.4c65.8,0,118.9-52.5,118.9-117.6S265.8,160.2,200,160.2c-65.8,0-118.9,52.5-118.9,117.6S134.2,395.4,200,395.4z M499.7,508.3c76.4,0,138.2-61.1,138.2-135.5s-61.8-135.5-138.2-135.5c-75.7-0.7-137.5,59.8-137.5,134.9C362.1,447.2,423.9,508.3,499.7,508.3z M800,395.4c65.8,0,118.9-52.5,118.9-117.6S865.8,160.2,800,160.2s-118.9,52.5-118.9,117.6C681.7,342.9,734.9,395.4,800,395.4z M811.9,447.2H788c-76.4,0-141.5,47.8-166.8,115.6c51.8,25.2,93,67.1,117.6,118.9h221.2c16.6,0,29.9-13.3,29.9-29.9v-27.2C990,526.9,910.3,447.2,811.9,447.2z M377.4,560.1c-25.9-65.8-90.4-112.9-165.4-112.9h-23.9C89.7,447.2,10,526.9,10,624.6v27.2c0,16.6,13.3,29.9,29.9,29.9h214.6C279.1,627.9,322.9,584.7,377.4,560.1z M520.9,568.1h-41.2c-110.3,0-200,89.7-200,200V804c0,19.9,15.9,35.9,35.9,35.9h370.7c19.9,0,35.9-15.9,35.9-35.9v-35.9C720.9,657.8,631.2,568.1,520.9,568.1z"/></g>
</svg>