<?xml version="1.0" encoding="utf-8"?>
<!-- Svg Vector Icons : http://www.onlinewebfonts.com/icon -->
<!DOCTYPE svg PUBLIC "-//W3C//DTD SVG 1.1//EN" "http://www.w3.org/Graphics/SVG/1.1/DTD/svg11.dtd">
<svg version="1.1" xmlns="http://www.w3.org/2000/svg" xmlns:xlink="http://www.w3.org/1999/xlink" x="0px" y="0px" viewBox="0 0 1000 1000" enable-background="new 0 0 1000 1000" xml:space="preserve">
<metadata> Svg Vector Icons : http://www.onlinewebfonts.com/icon </metadata>
<g><path d="M881.1,799.4h-81.7v9l0,0V990L566.5,799.4H391.1c-25.7,0-77.5,0-81.7,0c0,0,33.5-23,81.7-54.5H500h81.7L745,881.1v-81.7V745h136.1c30.1,0,54.4-24.4,54.4-54.4V363.9c0-30.1-24.4-54.4-54.4-54.4h-54.4V255h54.4c60.1,0,108.9,48.8,108.9,108.9v326.7C990,750.7,941.2,799.4,881.1,799.4z M663.3,636.1H472.8l-131.2,81.7l-141.1,81.7V645.1l0,0v-9h-9.4h-17.8h-54.4C58.8,636.1,10,587.4,10,527.2V118.9C10,58.8,58.8,10,118.9,10h544.4c60.1,0,108.9,48.8,108.9,108.9v408.4C772.2,587.4,723.5,636.1,663.3,636.1z M717.8,118.9c0-30.1-24.4-54.4-54.4-54.4H118.9c-30.1,0-54.4,24.4-54.4,54.4v408.4c0,30,24.4,54.4,54.4,54.4H255v108.9v27.2v0l122.5-81.7l0,0l81.7-54.4h204.2c30.1,0,54.4-24.4,54.4-54.4V118.9z M540.8,363.9c-22.5,0-40.8-18.3-40.8-40.8c0-22.5,18.3-40.8,40.8-40.8c22.5,0,40.8,18.3,40.8,40.8C581.7,345.6,563.4,363.9,540.8,363.9z M377.5,363.9c-22.5,0-40.8-18.3-40.8-40.8c0-22.5,18.3-40.8,40.8-40.8c22.5,0,40.8,18.3,40.8,40.8C418.3,345.6,400,363.9,377.5,363.9z M214.2,363.9c-22.5,0-40.8-18.3-40.8-40.8c0-22.5,18.3-40.8,40.8-40.8s40.8,18.3,40.8,40.8C255,345.6,236.7,363.9,214.2,363.9z"/></g>
</svg>