<?xml version="1.0" standalone="no"?>
<svg xmlns:xlink="http://www.w3.org/1999/xlink" id="wave" style="transform:rotate(180deg); transition: 0.3s" viewBox="0 0 1440 100" version="1.1" xmlns="http://www.w3.org/2000/svg"><defs><linearGradient id="sw-gradient-0" x1="0" x2="0" y1="1" y2="0"><stop stop-color="rgba(145, 179, 250, 1)" offset="0%"/><stop stop-color="rgba(46.725, 84.078, 162.079, 1)" offset="100%"/></linearGradient></defs><path style="transform:translate(0, 0px); opacity:1" fill="url(#sw-gradient-0)" d="M0,0L40,13.3C80,27,160,53,240,60C320,67,400,53,480,40C560,27,640,13,720,10C800,7,880,13,960,18.3C1040,23,1120,27,1200,36.7C1280,47,1360,63,1440,60C1520,57,1600,33,1680,25C1760,17,1840,23,1920,30C2000,37,2080,43,2160,43.3C2240,43,2320,37,2400,41.7C2480,47,2560,63,2640,63.3C2720,63,2800,47,2880,33.3C2960,20,3040,10,3120,5C3200,0,3280,0,3360,11.7C3440,23,3520,47,3600,60C3680,73,3760,77,3840,80C3920,83,4000,87,4080,80C4160,73,4240,57,4320,56.7C4400,57,4480,73,4560,75C4640,77,4720,63,4800,55C4880,47,4960,43,5040,36.7C5120,30,5200,20,5280,20C5360,20,5440,30,5520,35C5600,40,5680,40,5720,40L5760,40L5760,100L5720,100C5680,100,5600,100,5520,100C5440,100,5360,100,5280,100C5200,100,5120,100,5040,100C4960,100,4880,100,4800,100C4720,100,4640,100,4560,100C4480,100,4400,100,4320,100C4240,100,4160,100,4080,100C4000,100,3920,100,3840,100C3760,100,3680,100,3600,100C3520,100,3440,100,3360,100C3280,100,3200,100,3120,100C3040,100,2960,100,2880,100C2800,100,2720,100,2640,100C2560,100,2480,100,2400,100C2320,100,2240,100,2160,100C2080,100,2000,100,1920,100C1840,100,1760,100,1680,100C1600,100,1520,100,1440,100C1360,100,1280,100,1200,100C1120,100,1040,100,960,100C880,100,800,100,720,100C640,100,560,100,480,100C400,100,320,100,240,100C160,100,80,100,40,100L0,100Z"/></svg>